<svg xmlns="http://www.w3.org/2000/svg" width="32" height="32" viewBox="0 0 32 32">
  <metadata><?xpacket begin="﻿" id="W5M0MpCehiHzreSzNTczkc9d"?>
<x:xmpmeta xmlns:x="adobe:ns:meta/" x:xmptk="Adobe XMP Core 5.6-c138 79.159824, 2016/09/14-01:09:01        ">
   <rdf:RDF xmlns:rdf="http://www.w3.org/1999/02/22-rdf-syntax-ns#">
      <rdf:Description rdf:about=""/>
   </rdf:RDF>
</x:xmpmeta>
                                                                                                    
                                                                                                    
                                                                                                    
                                                                                                    
                                                                                                    
                                                                                                    
                                                                                                    
                                                                                                    
                                                                                                    
                                                                                                    
                                                                                                    
                                                                                                    
                                                                                                    
                                                                                                    
                                                                                                    
                                                                                                    
                                                                                                    
                                                                                                    
                                                                                                    
                                                                                                    
                           
<?xpacket end="w"?></metadata>
<defs>
    <style>
      .cls-1 {
        fill: #fff;
        fill-rule: evenodd;
      }
    </style>
  </defs>
  <path class="cls-1" d="M25.4,5.658h0c-0.4-.3-0.7-0.6-1.1-0.9h0a6.728,6.728,0,0,0-1.1-.7l-0.2-.1a10.915,10.915,0,0,0-1.1-.6l-0.2-.1a3.587,3.587,0,0,0-1.1-.4l-0.3-.1c-0.3-.1-0.7-0.2-1-0.3l-0.3-.1c-0.3-.1-0.7-0.1-1.1-0.2l-0.4-.1a14.073,14.073,0,0,0-2.9,0H14.3a4.26,4.26,0,0,0-1.1.2l-0.2.1c-0.4.1-.7,0.2-1.1,0.3l-0.2.1c-0.4.1-.8,0.3-1.1,0.4H10.5l-1.2.6h0a13.985,13.985,0,1,0,19,5.589A15.314,15.314,0,0,0,25.4,5.658ZM16,29.011A12.983,12.983,0,0,1,6.6,7.055L8,8.452a11.065,11.065,0,0,1,15.6-.4,4.343,4.343,0,0,1,.6.7l1.4-1.4a13.038,13.038,0,0,1-.9,18.363A13.279,13.279,0,0,1,16,29.011Z"/>
</svg>
