<svg id="Layer_1" data-name="Layer 1" xmlns="http://www.w3.org/2000/svg" viewBox="0 0 32 32"><defs><style>.cls-1{fill:none;}.cls-2{fill:#fff;}</style></defs><title>ui_</title><rect class="cls-1" width="32" height="32"/><path class="cls-2" d="M25.32,5.57h0q-.51-.46-1.07-.87l0,0q-.53-.38-1.1-.72L23,3.87c-.35-.2-.72-.39-1.09-.56l-.2-.1c-.35-.15-.71-.29-1.07-.42l-.29-.1c-.34-.11-.69-.2-1-.29l-.36-.09c-.35-.07-.71-.13-1.07-.17l-.37-.06a13.89,13.89,0,0,0-2.93,0l-.32,0c-.37,0-.74.1-1.1.17l-.28.07c-.37.09-.74.18-1.09.29l-.19.07c-.38.13-.76.27-1.13.43l-.1,0c-.4.18-.78.37-1.16.58l0,0A14,14,0,1,0,25.32,5.57ZM16,29A13,13,0,0,1,6.62,7L8,8.43A11,11,0,0,1,24.2,8.7l1.41-1.41A13,13,0,0,1,16,29Z"/></svg>